<?xml version="1.0" encoding="UTF-8" standalone="no"?>
<!-- Created with Inkscape (http://www.inkscape.org/) -->

<svg
   xmlns:dc="http://purl.org/dc/elements/1.1/"
   xmlns:cc="http://creativecommons.org/ns#"
   xmlns:rdf="http://www.w3.org/1999/02/22-rdf-syntax-ns#"
   xmlns:svg="http://www.w3.org/2000/svg"
   xmlns="http://www.w3.org/2000/svg"
   xmlns:sodipodi="http://sodipodi.sourceforge.net/DTD/sodipodi-0.dtd"
   xmlns:inkscape="http://www.inkscape.org/namespaces/inkscape"
   width="744.09448819"
   height="1052.3622047"
   id="svg2"
   version="1.1"
   inkscape:version="0.48.3.1 r9886"
   sodipodi:docname="harklogo_BET.dxf">
  <defs
     id="defs4" />
  <sodipodi:namedview
     id="base"
     pagecolor="#ffffff"
     bordercolor="#666666"
     borderopacity="1.0"
     inkscape:pageopacity="0.0"
     inkscape:pageshadow="2"
     inkscape:zoom="0.9899495"
     inkscape:cx="490.07042"
     inkscape:cy="743.87808"
     inkscape:document-units="px"
     inkscape:current-layer="layer1"
     showgrid="false"
     inkscape:window-width="1280"
     inkscape:window-height="930"
     inkscape:window-x="0"
     inkscape:window-y="31"
     inkscape:window-maximized="1" />
  <metadata
     id="metadata7">
    <rdf:RDF>
      <cc:Work
         rdf:about="">
        <dc:format>image/svg+xml</dc:format>
        <dc:type
           rdf:resource="http://purl.org/dc/dcmitype/StillImage" />
        <dc:title></dc:title>
      </cc:Work>
    </rdf:RDF>
  </metadata>
  <g
     inkscape:label="Layer 1"
     inkscape:groupmode="layer"
     id="layer1">
    <path
       style="fill:#000000"
       d="m 344.37933,608.79995 -9.82606,-0.41562 -7.93524,-0.58686 -30.57207,-3.62769 -28.56693,-9.451 -17.97845,-9.63403 -17.10335,-11.83576 -6.47982,-4.85829 -9.00488,-7.59336 -9.99905,-4.66566 -11.47535,3.22586 -6.47145,-2.42365 8.90415,-5.88448 -1.18962,-7.85351 -9.07758,-7.37198 -8.27855,-3.66936 -4.20095,-9.09995 -10.61044,-7.79164 -9.07606,-12.35273 -26.95629,-29.14758 -27.63184,-28.23243 -5.272321,-8.6094 -6.83641,-6.66981 -10.256641,-3.13963 -9.304109,-8.39558 0.143678,-6.77761 -3.237038,-0.95998 8.339474,-8.49503 1.712322,-11.15131 -0.518485,-21.81922 1.513379,-21.42973 9.488529,-38.51094 14.813832,-36.88507 11.29479,-22.75458 13.16819,-21.88617 1.96401,-3.04312 4.89993,-7.37687 5.41655,-6.17875 2.15772,-3.67793 1.95382,-1.84579 5.13741,-6.59821 2.63996,-4.56574 4.16714,-7.69728 8.00079,-8.34855 6.31191,-7.94087 6.23363,-4.98547 5.08287,-6.51483 13.28948,-13.62705 14.24122,-13.7743 42.03089,-31.4239 46.46235,-23.84445 9.64049,-4.410171 5.07307,-2.174169 5.01822,-1.265711 6.16888,-1.919929 11.71824,-4.336765 12.15043,-4.451524 8.22351,-1.793719 9.52362,-1.361642 7.19218,-2.058616 9.51662,-1.188634 11.05942,-1.403479 5.57045,-0.790721 11.49562,-1.385903 10.22761,-0.902857 8.47428,-0.776538 8.62212,0.190728 8.85588,-0.767743 11.65992,-0.945827 11.89854,-1.237442 2.63056,-3.127358 -5.68374,-0.81555 -9.02546,0.47946 -1.40594,-0.562411 -10.76146,0.03082 -5.48133,0.01709 -2.11717,-2.425256 6.4131,-5.375347 8.26462,-1.227868 6.13308,-0.179946 6.21558,0.197556 7.73019,0.84116 9.39675,-0.1314 28.22429,2.563208 27.32249,4.934696 41.72275,-3.133748 41.57447,-0.0086 2.40552,7.880354 -13.21801,2.049282 -21.82412,-0.359827 -21.85241,0.874648 8.1996,6.709622 10.305,5.206158 19.8557,12.479218 17.7702,14.092752 6.72304,5.183646 6.00736,5.449224 6.39922,7.329669 7.25178,5.9675 6.84424,9.64958 4.00976,5.54794 12.59358,14.96747 11.68562,17.09123 7.93768,12.94318 6.76662,12.6505 3.36166,6.14259 4.18754,7.86433 3.63188,9.51034 3.96662,9.38168 12.25019,55.72013 -1.50627,57.43251 -6.81428,37.80322 -12.97494,35.97666 -23.25828,34.45394 -30.66772,28.18603 -44.23766,27.33078 -44.37894,27.66282 -36.35157,21.74978 -37.95593,18.94663 -1.84719,19.26054 -7.92494,16.48573 -12.6827,5.24125 -8.29495,-5.09072 4.05062,-9.26806 5.47106,-8.53339 -7.24603,-2.87179 -3.42207,11.65659 -10.84388,8.1967 -9.31424,-3.9752 -7.31731,0.21472 -9.69034,4.64828 -30.1694,8.52044 -30.99613,3.91023 -5.45056,-0.21934 z m 10.0679,-12.43995 30.26027,-3.4777 28.43763,-7.11217 12.75152,-5.94499 5.39347,-11.70939 -4.01806,-29.08162 -2.91707,-29.22003 -3.26434,-26.9097 -4.43062,-26.69134 -18.4261,7.19046 -16.934,11.48837 5.24064,30.64359 5.24757,30.85335 5.45948,22.97612 4.71425,22.89398 -7.96575,-2.28536 -4.59489,-12.11878 -9.14389,-45.10437 -9.63651,-44.70894 -22.36402,5.04812 -20.93581,7.39617 1.64501,25.40684 3.69081,25.63521 1.54502,13.54343 -6.51491,3.00482 -6.48492,-31.09278 -4.19878,-31.56744 -10.16294,6.60678 1.61754,14.00395 6.80362,32.81951 6.90556,32.53252 -7.58448,-2.81491 -5.25997,-13.73928 -6.10269,-29.94196 -6.34944,-29.88526 -20.4589,12.28123 -19.7444,13.37511 -0.22793,20.8808 2.07953,20.33974 20.6893,11.80085 23.036,7.78538 26.07005,3.88238 z m -107.7293,-33.19711 -0.21491,-15.64631 -6.48139,-6.43403 -9.95809,5.91169 4.2358,7.86712 6.00454,4.66377 z m 246.6501,-19.45565 51.39789,-25.9902 48.52861,-31.13439 53.19656,-32.80064 42.02274,-45.27318 10.73675,-20.79674 7.20715,-22.70421 8.3516,-57.01568 -2.9074,-57.90045 -3.34247,-12.85157 -3.06033,-10.90356 -3.22964,-7.30001 -1.13926,-4.73058 -2.45798,-5.86503 -2.38562,-6.48264 -9.56077,-18.86552 -10.64993,-18.20846 -14.4281,-21.26392 -15.2259,-20.05257 -4.63407,-5.09265 -5.97693,-6.67108 -6.95567,-6.71191 -7.66173,-7.31671 -30.46697,-22.897784 -33.72913,-17.765446 -13.67509,-4.41252 -14.27481,-3.97635 -8.95033,-0.673715 -9.84433,2.530595 -76.25839,4.504488 -75.61365,9.193972 -32.53488,9.391305 -32.02522,13.235975 -78.97756,50.82949 -63.15895,70.16926 -32.48544,57.906 -20.935597,63.01503 -2.812248,25.46023 1.931244,25.41266 31.405761,-22.6515 32.09469,-21.63848 24.4904,-12.14785 24.86082,-11.01278 10.56143,-4.97071 -0.78045,3.96734 12.68625,-4.20957 11.63995,-4.21325 10.20224,-5.1862 11.71725,-6.99724 14.50399,-7.42431 7.03084,-2.52116 -10.58914,8.18406 4.95111,-2.51301 30.02296,-19.32777 31.18425,-17.06977 17.70464,-9.75778 19.12676,-8.36273 30.50373,-15.82989 30.18497,-16.97073 7.71792,-4.81077 10.21261,-5.7084 0.43634,5.25428 -5.82977,6.40287 11.42357,-4.93035 11.76317,-4.3715 24.51925,-12.42974 24.53961,-12.29351 -6.73445,7.11578 2.0682,0.8618 9.27055,-7.4617 9.3726,-7.20304 14.51254,-5.07214 13.99936,0.17701 -9.30704,7.12727 -11.96856,7.19853 -10.36685,6.48254 -6.8877,5.93522 -3.21083,5.41856 -3.27502,5.40622 12.38021,-5.24246 13.82969,-6.53576 15.01928,-5.46974 15.50252,-0.77227 -1.80414,6.61698 7.05134,-2.54835 6.47437,-1.8322 4.29703,0.017 5.62388,7.02447 3.68332,9.88201 9.31613,25.4142 8.27607,26.04795 0.92745,23.00386 -1.63107,22.70438 -8.3935,7.35075 -11.71543,1.77499 -6.37136,-6.1102 -3.96909,-13.77374 -15.17577,-27.19156 -5.36033,-30.72653 -5.7851,-11.53213 -10.8361,0.51441 -18.27031,9.5298 -18.07969,9.92033 8.85433,8.19723 6.71157,11.21503 15.86349,20.24103 4.03924,23.88821 -5.07093,11.95231 -10.2376,5.73522 -14.00012,3.78563 -11.66441,-9.87218 -15.39064,-26.91007 -9.43573,-29.61883 -20.44024,13.04411 -20.64766,12.56427 13.33188,21.50812 14.52482,21.06237 -0.91004,13.60037 -3.66815,11.75799 -9.39695,9.37985 -10.78156,4.52975 -5.15432,-3.46451 2.75172,9.00802 19.09269,50.71746 12.73041,52.3512 3.32346,28.93794 3.75774,28.90139 8.87569,5.42251 -3.78737,13.34571 -0.87651,2.92272 z m -273.2229,-3.38814 17.43311,-9.5013 8.04498,-16.40685 -3.65707,-8.14366 -10.48672,4.99372 -10.45282,6.11805 -5.64124,9.71549 -6.13068,1.81339 -1.74196,1.88464 5.79429,6.10464 z m -21.86275,-21.11643 8.48366,-12.7389 -1.53013,-16.7194 -6.77791,-40.83128 -12.36687,-39.37793 -6.54753,-14.50146 -5.75267,-14.75301 -15.2226,7.03628 -13.46533,11.90742 1.08309,22.18963 7.08864,21.45159 7.43094,22.76226 7.76596,24.26885 12.29377,14.69778 13.75928,12.85212 z m 58.71805,-0.99157 18.4364,-12.06169 18.508,-11.86248 -2.14622,-10.60313 -9.86458,2.0848 -14.21459,5.74433 -12.34687,7.83348 -0.7244,9.9914 z m -39.0047,-10.06559 13.82822,-7.60266 11.32198,-9.93694 -3.90012,-25.65087 -5.29408,-25.23316 -11.62071,3.24342 -9.40999,-5.01273 -7.19819,-3.76658 -0.37801,9.28309 7.08047,32.44116 4.16573,33.08758 0.70445,-0.42625 0.70445,-0.42625 -0.002,9e-5 -0.002,10e-5 -10e-5,0 z m 85.8066,-18.02959 10.72015,-5.63738 -1.43329,-11.79801 -11.87092,5.59466 z m -48.1346,-2.83702 16.92937,-7.76904 17.04373,-7.51815 -2.3279,-23.06065 -4.8064,-22.30119 -9.06871,-2.37078 -3.39469,-9.76243 -9.52752,-23.88974 -10.35718,-23.88942 -12.79076,0.91778 -4.25214,10.47986 5.64797,26.48178 3.38293,26.81475 5.47485,27.39641 5.07075,27.43842 1.49477,0.4752 z m 70.8553,-6.74159 21.73626,-5.58067 20.96464,-7.15497 -2.88386,-12.3931 -11.47702,1.37432 -15.88723,5.3481 -14.75699,6.80064 0.56077,6.42208 z m -173.1615,-10.57104 -9.57659,-30.36325 -8.8744,-30.35154 -11.37925,1.16779 -11.7242,7.59457 1.66698,7.78199 5.7503,7.97777 9.46928,12.58249 9.74338,11.36592 5.79115,5.38691 5.50975,5.95257 1.87038,1.47507 z m 146.99361,-1.58901 11.47389,-7.16506 0.15556,-12.46074 -2.08722,-19.68961 -2.04444,-19.69819 -14.25404,7.96241 -0.46456,16.44755 3.16487,17.42074 z m 80.38379,-4.30482 15.83064,-9.74993 16.39388,-7.96554 -1.81181,-10.63572 -12.94301,3.03054 -12.26432,4.86818 -10.45878,7.79068 1.45448,6.90054 z m -55.7356,-5.76576 19.1351,-6.74414 18.8201,-7.36397 -2.71586,-22.2428 -6.34634,-22.12829 -12.30275,-8.79978 -7.20285,-13.01518 -5.70867,-20.95049 -4.03483,-20.91859 -11.03845,5.11802 -3.19355,10.84482 5.37569,53.27507 6.29711,53.19492 1.4697,0.0195 z m 49.5695,-18.81766 18.59135,-7.21626 18.62415,-7.18507 -2.40693,-24.82084 -4.94237,-24.30959 -15.36918,-25.92491 -6.44412,-29.15057 -4.35574,-9.67251 -11.85088,5.25 -3.00939,13.44272 4.26747,14.63467 6.98866,20.75374 4.66655,20.81445 -8.38869,6.97204 -8.00186,4.84795 4.27481,20.32684 5.80025,19.9087 0.75374,0.79385 z m -68.4383,-41.60947 -1.48937,-18.858 -2.12217,-19.6941 -3.75173,-10.71773 -10.98813,5.89471 10.09345,12.97209 3.55028,17.71477 1.63888,8.75961 z m 4.5994,-84.36311 15.76057,-10.96434 16.94673,-10.57037 -8.8645,2.30894 -9.6429,6.40338 -8.27224,5.43965 -5.81026,5.10975 -0.72278,1.60918 z m 169.7374,-115.76891 12.25512,-8.33676 6.79197,-6.03774 -11.8068,6.69134 -10.45469,8.15224 1.45114,0.35646 z M 69.064529,553.663 59.338543,529.96013 52.371069,503.86908 48.552028,484.72234 45.648489,466.0562 43.17072,450.78801 l -1.778631,-15.87464 -1.53905,-39.77532 0.72514,-39.10859 1.55265,-6.89383 1.67761,-9.5825 5.06412,-33.2636 7.24152,-32.71439 2.349733,-6.19878 2.039747,-6.82734 1.734562,-5.39017 3.114518,-9.44625 5.971851,-14.84943 4.754709,-14.12793 3.552033,-5.17521 3.365827,-5.93853 3.992204,-8.09906 3.751866,-7.65834 2.529395,-2.67468 0.360645,-3.00174 5.419362,-6.79166 5.218429,-7.9152 2.56632,-3.42149 4.27224,-6.31921 45.52808,-44.73864 53.84993,-34.50847 31.91522,-15.573362 33.21268,-12.207148 19.80345,-6.059773 20.18325,-4.602297 9.80625,-2.304251 6.15015,-1.952389 7.09821,1.113771 -3.26961,3.934099 -6.19606,2.593146 -6.63114,0.858874 -2.74632,2.753067 -8.13038,1.211143 -6.0531,0.372115 -5.77122,2.906323 -4.70042,0.944915 -4.71516,0.510774 -5.30773,2.468249 -3.43757,2.279231 -5.38446,1.175054 -4.68934,-0.600684 -8.10363,3.236942 -2.95677,3.718888 -5.39354,-0.450115 -7.77056,4.097115 -7.15865,2.928037 -8.3765,1.760779 -3.20422,3.737724 -6.25413,3.08119 -6.27801,4.389568 -4.23699,3.247952 -9.37887,4.674399 -7.01313,3.922611 -5.58112,4.328503 -7.76318,5.55522 -4.10119,2.33528 -4.52701,4.76246 -15.21419,10.76187 -14.26342,12.66241 -47.846336,58.90682 -29.163694,70.1775 -14.873462,75.56896 -3.444689,76.37839 0.673271,15.04515 1.78596,13.01127 3.799582,28.75694 4.977842,28.68459 6.151742,22.92579 5.85339,22.8929 -1.346949,1.81053 z M 427.67203,40.25195 l 3.22778,-4.029587 5.27734,-0.04881 -2.30509,2.49696 z m 3.3352,-5.45956 5.13504,-3.636757 1.62185,2.049547 -3.1373,1.020919 z"
       id="path3096"
       inkscape:connector-curvature="0"
       sodipodi:nodetypes="ccccccccccccccccccccccccccccccccccccccccccccccccccccccccccccccccccccccccccccccccccccccccccccccccccccccccccccccccccccccccccccccccccccccccccccccccccccccccccccccccccccccccccccccccccccccccccccccccccccccccccccccccccccccccccccccccccccccccccccccccccccccccccccccccccccccccccccccccccccccccccccccccccccccccccccccccccccccccccccccccccccccccccccccccccccccccccccccccccccccccccccccccccccccccccccccccccccccccccccccccccccccccccccccccccccccccccccccccccccccccccccccccccccccccccccccccccccccccccccccccccccccccccccccccccccccccccccccccccccccccccccccccccccccccccccccccccccccccccccccccccccccccccccccccccccc" />
    <g
       id="g2996"
       transform="translate(765.71429,34.285714)" />
  </g>
</svg>
